<svg width="244" height="62" viewBox="0 0 244 62" fill="none" xmlns="http://www.w3.org/2000/svg">
<g filter="url(#filter0_d_413_8)">
<path d="M5.472 35.064C5.04533 35.064 4.832 34.8507 4.832 34.424C4.832 34.0827 4.98133 33.5067 5.28 32.696C5.62133 31.8427 6.13333 30.6267 6.816 29.048C7.66933 27.0853 8.52267 25.08 9.376 23.032C10.272 20.984 11.1253 18.9147 11.936 16.824C11.552 16.8667 11.1893 16.9093 10.848 16.952C10.5067 16.9947 10.208 17.0373 9.952 17.08C9.90933 17.08 9.888 17.0587 9.888 17.016C9.888 16.9307 10.016 16.76 10.272 16.504C10.528 16.2053 10.8267 16.056 11.168 16.056H12.256C13.1093 13.88 13.9413 11.704 14.752 9.528C15.6053 7.30933 16.3733 5.15467 17.056 3.064C17.184 2.68 17.248 2.38133 17.248 2.168C17.248 1.82667 17.12 1.61333 16.864 1.528C16.608 1.4 16.2453 1.336 15.776 1.336C15.3067 1.336 14.688 1.35733 13.92 1.4C13.1947 1.44266 12.7467 1.464 12.576 1.464C12.4907 1.464 12.448 1.44266 12.448 1.4C12.448 1.31467 12.512 1.208 12.64 1.08C12.8107 0.909331 12.9387 0.823997 13.024 0.823997C13.7493 0.866664 14.5813 0.909331 15.52 0.952C16.5013 0.994666 17.4187 1.016 18.272 1.016C19.2533 1.016 20.2133 1.016 21.152 1.016C22.1333 1.016 23.0933 0.994666 24.032 0.952C25.7387 0.909331 27.424 0.887997 29.088 0.887997C30.7947 0.845331 32.5013 0.823997 34.208 0.823997C34.4213 0.823997 34.4853 0.909331 34.4 1.08C34.3147 1.208 34.272 1.29333 34.272 1.336C33.8453 2.31733 33.4827 3.32 33.184 4.344C32.8853 5.368 32.5653 6.37067 32.224 7.352C32.1813 7.48 32.0747 7.544 31.904 7.544C31.7333 7.544 31.6693 7.50133 31.712 7.416C31.84 7.16 31.9893 6.73333 32.16 6.136C32.3733 5.496 32.544 4.89867 32.672 4.344C32.8 3.78933 32.864 3.46933 32.864 3.384C32.864 2.65866 32.4373 2.168 31.584 1.912C30.7307 1.61333 29.4933 1.44266 27.872 1.4C27.5307 1.4 27.168 1.4 26.784 1.4C26.4 1.35733 26.0373 1.336 25.696 1.336C24.928 1.336 24.1813 1.35733 23.456 1.4C22.7307 1.44266 22.0267 1.50666 21.344 1.592C20.576 1.67733 20 1.912 19.616 2.296C19.2747 2.68 18.9973 3.128 18.784 3.64C18.1867 4.83467 17.376 6.56267 16.352 8.824C15.3707 11.0853 14.3253 13.496 13.216 16.056C13.9413 16.056 14.6453 16.056 15.328 16.056C16.0107 16.0133 16.6933 15.992 17.376 15.992C18.8267 15.9493 20.2347 15.928 21.6 15.928C23.008 15.8853 24.4373 15.864 25.888 15.864C26.1013 15.864 26.1653 15.9493 26.08 16.12C26.0373 16.248 25.9947 16.3333 25.952 16.376C25.5253 17.3573 25.2267 18.168 25.056 18.808C24.8853 19.4053 24.736 19.96 24.608 20.472C24.5653 20.5573 24.4373 20.6213 24.224 20.664C24.0107 20.7067 23.9253 20.6853 23.968 20.6C24.0533 20.4293 24.1387 20.216 24.224 19.96C24.352 19.704 24.4587 19.3627 24.544 18.936C24.6293 18.424 24.5867 17.9973 24.416 17.656C24.288 17.272 23.904 16.9947 23.264 16.824C22.88 16.696 22.304 16.6107 21.536 16.568C20.768 16.5253 20 16.504 19.232 16.504C18.5067 16.504 17.9307 16.504 17.504 16.504C16.8213 16.504 16.0747 16.5253 15.264 16.568C14.4533 16.568 13.6853 16.6107 12.96 16.696C11.936 19.1707 10.9333 21.6453 9.952 24.12C9.01333 26.552 8.24533 28.6427 7.648 30.392C7.56267 30.6907 7.456 31.032 7.328 31.416C7.24267 31.8 7.2 32.1627 7.2 32.504C7.2 33.4427 7.584 34.04 8.352 34.296C8.69333 34.424 9.12 34.5093 9.632 34.552C10.1867 34.5947 10.72 34.616 11.232 34.616C11.5733 34.616 11.872 34.616 12.128 34.616C12.384 34.616 12.5973 34.5947 12.768 34.552C12.8107 34.552 12.832 34.5733 12.832 34.616C12.832 34.872 12.704 35 12.448 35C11.936 35 11.2533 35 10.4 35C9.58933 35 8.77867 35 7.968 35C7.15733 34.9573 6.51733 34.9573 6.048 35C5.92 35.0427 5.728 35.064 5.472 35.064ZM26.613 35.64C26.229 35.64 26.037 35.4267 26.037 35C26.037 34.6587 26.2077 33.976 26.549 32.952C26.8903 31.928 27.3383 30.7547 27.893 29.432C28.7463 27.2987 29.7277 24.9093 30.837 22.264C31.989 19.6187 33.0557 17.0587 34.037 14.584C34.805 12.7067 35.5517 10.8293 36.277 8.952C37.045 7.07467 37.7703 5.19733 38.453 3.32C38.5383 3.064 38.581 2.872 38.581 2.744C38.581 2.27466 38.4103 1.976 38.069 1.848C37.7703 1.72 37.493 1.63467 37.237 1.592C36.8103 1.54933 36.405 1.528 36.021 1.528C35.637 1.528 35.2103 1.528 34.741 1.528C34.5703 1.528 34.5063 1.48533 34.549 1.4C34.5917 1.31467 34.677 1.272 34.805 1.272H37.557C38.2823 1.272 38.9223 1.272 39.477 1.272C40.0317 1.22933 40.437 1.144 40.693 1.016C41.205 0.887998 41.333 1.016 41.077 1.4C40.5223 2.296 40.0317 3.21333 39.605 4.152C39.221 5.048 38.8157 5.98667 38.389 6.968L34.741 15.352C33.7597 17.656 32.821 19.8747 31.925 22.008C31.029 24.1413 30.261 26.0827 29.621 27.832C28.981 29.5387 28.533 30.8827 28.277 31.864C28.2343 32.1627 28.1703 32.4827 28.085 32.824C28.0423 33.1227 28.021 33.4 28.021 33.656C28.021 34.168 28.1703 34.424 28.469 34.424C28.8103 34.424 29.2157 34.296 29.685 34.04C30.197 33.784 30.6663 33.5067 31.093 33.208C31.5197 32.9093 31.797 32.7173 31.925 32.632C32.693 32.0347 33.4183 31.3733 34.101 30.648C34.7837 29.9227 35.4237 29.1547 36.021 28.344C36.1917 28.088 36.341 27.96 36.469 27.96C36.5543 27.96 36.597 28.024 36.597 28.152C36.597 28.3227 36.5117 28.4933 36.341 28.664C35.1463 30.1147 33.7597 31.5013 32.181 32.824C30.645 34.1467 28.9383 35.064 27.061 35.576C26.933 35.6187 26.7837 35.64 26.613 35.64ZM37.305 35.832C35.9823 35.832 35.321 35.0427 35.321 33.464C35.321 32.44 35.5557 31.224 36.025 29.816C36.537 28.3653 37.1343 26.9147 37.817 25.464C37.9023 25.336 37.9877 25.1867 38.073 25.016C38.1583 24.8027 38.265 24.6107 38.393 24.44C38.0943 23.8427 37.945 23.1387 37.945 22.328C37.945 20.92 38.393 19.5547 39.289 18.232C40.2277 16.8667 41.3797 15.736 42.745 14.84C44.1103 13.944 45.497 13.496 46.905 13.496C48.313 13.496 49.273 13.8373 49.785 14.52C50.3397 15.2027 50.617 16.0347 50.617 17.016C50.617 18.2107 50.3397 19.5547 49.785 21.048C49.273 22.4987 48.761 23.7787 48.249 24.888C47.3957 26.7227 46.3503 28.472 45.113 30.136C43.8757 31.8 42.5743 33.1653 41.209 34.232C39.8437 35.256 38.5423 35.7893 37.305 35.832ZM38.393 34.872C39.545 34.8293 40.6543 34.36 41.721 33.464C42.8303 32.5253 43.8757 31.3307 44.857 29.88C45.8383 28.3867 46.713 26.8293 47.481 25.208C47.9503 24.2267 48.3557 23.0747 48.697 21.752C49.081 20.4293 49.273 19.1707 49.273 17.976C49.273 16.8667 49.0383 15.9493 48.569 15.224C48.0997 14.456 47.3103 14.072 46.201 14.072C44.7503 14.072 43.4703 14.5413 42.361 15.48C41.2517 16.4187 40.3983 17.5707 39.801 18.936C39.2037 20.3013 38.905 21.6453 38.905 22.968V23.544C39.6303 22.392 40.5263 21.1547 41.593 19.832C42.6597 18.5093 43.7477 17.3787 44.857 16.44C46.009 15.5013 47.033 15.0747 47.929 15.16C48.0143 15.16 48.0357 15.224 47.993 15.352C47.993 15.4373 47.9503 15.48 47.865 15.48C47.1397 15.3947 46.3503 15.6933 45.497 16.376C44.6437 17.0587 43.7903 17.9333 42.937 19C42.1263 20.024 41.3797 21.0907 40.697 22.2C40.057 23.2667 39.545 24.1627 39.161 24.888C39.3317 25.4427 39.6517 25.8693 40.121 26.168L40.825 26.616C40.9103 26.6587 40.9103 26.7013 40.825 26.744C40.7397 26.7867 40.6543 26.7867 40.569 26.744C40.2277 26.5307 39.9077 26.3173 39.609 26.104C39.353 25.848 39.1183 25.592 38.905 25.336C37.497 28.3653 36.793 30.7973 36.793 32.632C36.793 34.1253 37.3263 34.872 38.393 34.872ZM61.033 35.576C60.5637 35.576 60.1583 35.384 59.817 35C59.5183 34.6587 59.369 34.0613 59.369 33.208C59.369 31.8 59.625 30.1573 60.137 28.28C60.6917 26.4027 61.289 24.5467 61.929 22.712C60.9903 24.376 59.9877 26.0187 58.921 27.64C57.8543 29.2187 56.7663 30.6053 55.657 31.8C54.5903 32.9947 53.545 33.8693 52.521 34.424C52.2223 34.5947 51.817 34.7867 51.305 35C50.8357 35.1707 50.3663 35.256 49.897 35.256C49.0863 35.256 48.681 34.7653 48.681 33.784C48.681 33.016 48.873 32.12 49.257 31.096C49.641 30.0293 50.025 29.0693 50.409 28.216C50.8357 27.32 51.113 26.744 51.241 26.488C52.2223 24.0987 52.969 22.2427 53.481 20.92C53.993 19.5547 54.3557 18.3813 54.569 17.4C54.6117 17.144 54.6543 16.888 54.697 16.632C54.7397 16.3333 54.761 16.056 54.761 15.8C54.761 15.0747 54.569 14.648 54.185 14.52C54.0143 14.4773 53.8223 14.456 53.609 14.456C53.3957 14.4133 53.1397 14.392 52.841 14.392C52.4997 14.392 52.137 14.4133 51.753 14.456C51.4117 14.456 51.113 14.456 50.857 14.456C50.729 14.456 50.6863 14.4133 50.729 14.328C50.8143 14.2427 50.9423 14.2 51.113 14.2H54.825C55.1663 14.2 55.465 14.2 55.721 14.2C55.977 14.1573 56.2117 14.1147 56.425 14.072L56.681 14.008H56.745C57.0437 14.008 57.065 14.2213 56.809 14.648L56.105 16.568C55.6783 17.8053 55.1023 19.256 54.377 20.92C53.6943 22.584 53.033 24.248 52.393 25.912C51.7103 27.5333 51.2197 28.8987 50.921 30.008C50.665 31.0747 50.537 32.0987 50.537 33.08C50.537 33.8907 50.7717 34.296 51.241 34.296C51.9663 34.296 52.7983 33.8907 53.737 33.08C54.7183 32.2693 55.721 31.2027 56.745 29.88C57.8117 28.5147 58.857 27.0213 59.881 25.4C60.905 23.736 61.865 22.072 62.761 20.408C62.8037 20.3653 62.825 20.3227 62.825 20.28C63.1663 19.1707 63.465 18.1467 63.721 17.208C63.977 16.2267 64.169 15.5227 64.297 15.096C64.3397 14.7547 64.617 14.584 65.129 14.584C65.3423 14.584 65.5343 14.648 65.705 14.776C65.8757 14.8613 65.9183 15.0107 65.833 15.224C65.6623 15.608 65.2997 16.4827 64.745 17.848C64.233 19.1707 63.657 20.728 63.017 22.52C62.4197 24.312 61.8863 26.104 61.417 27.896C60.9903 29.6453 60.777 31.1173 60.777 32.312C60.777 32.9947 60.8837 33.5493 61.097 33.976C61.3103 34.36 61.6303 34.552 62.057 34.552C62.569 34.552 63.081 34.424 63.593 34.168C64.5317 33.6987 65.5343 32.8453 66.601 31.608C67.6677 30.3707 68.6917 28.8987 69.673 27.192C70.697 25.4853 71.593 23.736 72.361 21.944C73.129 20.1093 73.6837 18.4027 74.025 16.824C74.153 16.3547 74.217 15.928 74.217 15.544C74.217 15.2027 74.1103 14.9467 73.897 14.776C73.7263 14.5627 73.3637 14.456 72.809 14.456H71.145C71.017 14.456 70.9743 14.4133 71.017 14.328C71.0597 14.2427 71.145 14.2 71.273 14.2C71.4863 14.2 71.849 14.1787 72.361 14.136C72.873 14.0933 73.2997 14.0293 73.641 13.944C73.8543 13.8587 74.089 13.7947 74.345 13.752C74.601 13.7093 74.8143 13.688 74.985 13.688C75.625 13.688 75.881 13.9653 75.753 14.52C75.7103 15.032 75.6037 15.6293 75.433 16.312C75.2623 16.9947 75.049 17.656 74.793 18.296C73.9397 20.5147 72.8943 22.7333 71.657 24.952C70.4623 27.128 69.1823 29.0907 67.817 30.84C66.4517 32.5893 65.065 33.8693 63.657 34.68C63.2303 34.936 62.7823 35.1493 62.313 35.32C61.8437 35.4907 61.417 35.576 61.033 35.576ZM77.1085 35.832C76.0418 35.832 75.2525 35.4907 74.7405 34.808C74.2712 34.1253 74.0365 33.208 74.0365 32.056C74.0365 31.032 74.2925 29.6667 74.8045 27.96C75.3165 26.2533 75.9778 24.504 76.7885 22.712L74.6765 23.288C74.5912 23.288 74.5272 23.2453 74.4845 23.16C74.4845 23.0747 74.5058 23.032 74.5485 23.032C74.7618 22.9893 75.0818 22.904 75.5085 22.776C75.9352 22.648 76.4258 22.4987 76.9805 22.328C77.7485 20.792 78.6018 19.3627 79.5405 18.04C80.4792 16.7173 81.4818 15.6507 82.5485 14.84C83.6152 14.0293 84.7032 13.624 85.8125 13.624C87.8178 13.624 88.8205 14.1787 88.8205 15.288C88.8205 15.5867 88.7565 16.0773 88.6285 16.76C88.5005 17.4 88.3512 17.976 88.1805 18.488C88.1378 18.616 88.0952 18.7653 88.0525 18.936C88.0525 19.064 88.0098 19.192 87.9245 19.32C87.8818 19.4907 87.7965 19.576 87.6685 19.576C87.5405 19.576 87.4978 19.5333 87.5405 19.448C87.7112 19.0213 87.8392 18.68 87.9245 18.424C88.0525 18.1253 88.1165 17.6987 88.1165 17.144C88.1165 15.5653 87.2845 14.776 85.6205 14.776C83.9565 14.776 82.4632 15.5227 81.1405 17.016C79.8178 18.4667 78.7298 20.152 77.8765 22.072C78.7725 21.8587 79.7538 21.6667 80.8205 21.496C81.9298 21.3253 83.0178 21.24 84.0845 21.24C84.8098 21.24 85.5565 21.304 86.3245 21.432C87.0925 21.56 87.7325 21.7947 88.2445 22.136C88.7992 22.4347 89.0765 22.8827 89.0765 23.48C89.0765 23.992 88.9698 24.312 88.7565 24.44C88.5432 24.568 88.4792 24.5467 88.5645 24.376C88.7778 23.9493 88.7352 23.608 88.4365 23.352C88.1805 23.0533 87.8392 22.84 87.4125 22.712C86.9858 22.5413 86.6018 22.4347 86.2605 22.392C85.7058 22.3067 85.1085 22.2427 84.4685 22.2C83.8712 22.1573 83.2525 22.136 82.6125 22.136C81.8018 22.136 80.9698 22.1787 80.1165 22.264C79.3058 22.3067 78.4952 22.4133 77.6845 22.584C77.0445 24.12 76.5538 25.656 76.2125 27.192C75.8712 28.6853 75.7005 29.9227 75.7005 30.904C75.7005 32.0987 75.9138 33.0587 76.3405 33.784C76.7672 34.5093 77.4498 34.872 78.3885 34.872C80.0952 34.872 81.7592 34.2107 83.3805 32.888C85.0018 31.5227 86.4098 29.9227 87.6045 28.088C87.7752 27.7467 87.9458 27.576 88.1165 27.576C88.1592 27.576 88.1805 27.64 88.1805 27.768C88.1805 27.9813 88.1378 28.152 88.0525 28.28C86.5165 30.3707 84.7672 32.1627 82.8045 33.656C80.8845 35.1067 78.9858 35.832 77.1085 35.832ZM89.904 35.768C89.776 35.768 89.648 35.6613 89.52 35.448C89.4347 35.2347 89.3707 35.0853 89.328 35C89.2853 34.9147 89.2427 34.808 89.2 34.68C89.2 34.552 89.2 34.4453 89.2 34.36C89.2 34.1467 89.2427 33.9333 89.328 33.72C89.456 33.5067 89.5627 33.3147 89.648 33.144C90.0747 32.248 90.5867 31.096 91.184 29.688C91.824 28.2373 92.4427 26.7013 93.04 25.08C93.68 23.4587 94.2347 21.9227 94.704 20.472C95.1733 18.9787 95.4507 17.7413 95.536 16.76C95.536 16.632 95.536 16.504 95.536 16.376C95.5787 16.248 95.6 16.12 95.6 15.992C95.6 15.5653 95.5147 15.2027 95.344 14.904C95.1733 14.6053 94.8107 14.456 94.256 14.456H91.632C91.504 14.456 91.4613 14.4133 91.504 14.328C91.5467 14.2427 91.5893 14.2 91.632 14.2C91.9733 14.2 92.5707 14.2 93.424 14.2C94.32 14.2 95.1733 14.1787 95.984 14.136C96.7947 14.0933 97.3067 14.0293 97.52 13.944C97.5627 13.944 97.584 13.944 97.584 13.944C97.6267 13.9013 97.6693 13.88 97.712 13.88C98.0533 13.88 98.1387 14.0507 97.968 14.392L97.2 16.248L95.024 22.072C95.536 21.1333 96.176 20.024 96.944 18.744C97.712 17.4213 98.608 16.2693 99.632 15.288C100.699 14.3067 101.851 13.816 103.088 13.816C103.813 13.816 104.347 13.9867 104.688 14.328C105.072 14.6267 105.264 15.1813 105.264 15.992C105.264 16.2907 105.221 16.6533 105.136 17.08C105.051 17.5067 104.944 17.976 104.816 18.488C104.773 18.616 104.731 18.7653 104.688 18.936C104.688 19.064 104.645 19.192 104.56 19.32C104.517 19.4907 104.432 19.576 104.304 19.576C104.176 19.576 104.133 19.5333 104.176 19.448C104.389 18.9787 104.539 18.5947 104.624 18.296C104.709 17.9973 104.752 17.5493 104.752 16.952C104.752 15.5867 103.984 14.904 102.448 14.904C101.509 14.904 100.571 15.3307 99.632 16.184C98.736 17.0373 97.8827 18.0827 97.072 19.32C96.2613 20.5573 95.5573 21.7947 94.96 23.032C94.3627 24.2693 93.9147 25.2507 93.616 25.976C93.0187 27.5547 92.4213 29.0907 91.824 30.584C91.2693 32.0773 90.7573 33.6347 90.288 35.256C90.16 35.5973 90.032 35.768 89.904 35.768ZM103.715 35.448C102.99 35.448 102.371 35.32 101.859 35.064C101.347 34.808 101.048 34.4667 100.963 34.04C100.92 33.912 100.899 33.7627 100.899 33.592C100.899 33.4213 100.899 33.2507 100.899 33.08C100.899 32.3547 100.963 31.544 101.091 30.648C101.219 29.7093 101.347 28.9627 101.475 28.408C101.56 28.152 101.731 28.024 101.987 28.024C102.243 28.024 102.328 28.088 102.243 28.216C102.072 28.5573 101.88 29.0053 101.667 29.56C101.454 30.1147 101.347 30.776 101.347 31.544C101.347 32.6107 101.731 33.4 102.499 33.912C103.267 34.424 104.142 34.68 105.123 34.68C106.19 34.68 107.299 34.4453 108.451 33.976C109.646 33.464 110.52 32.5253 111.075 31.16C111.288 30.6907 111.416 30.2427 111.459 29.816C111.544 29.3893 111.587 29.0053 111.587 28.664C111.587 27.6827 111.331 26.872 110.819 26.232C110.35 25.5493 109.752 24.9307 109.027 24.376C108.302 23.7787 107.576 23.1173 106.851 22.392C106.424 21.9653 106.126 21.5387 105.955 21.112C105.784 20.6853 105.699 20.2587 105.699 19.832C105.699 18.8507 106.062 17.9333 106.787 17.08C107.555 16.184 108.408 15.4587 109.347 14.904C110.584 14.1787 111.822 13.816 113.059 13.816C114.424 13.816 115.107 14.5413 115.107 15.992C115.107 16.6747 114.979 17.5067 114.723 18.488C114.68 18.616 114.638 18.7653 114.595 18.936C114.595 19.064 114.552 19.192 114.467 19.32C114.424 19.4907 114.339 19.576 114.211 19.576C114.083 19.576 114.04 19.5333 114.083 19.448C114.254 19.0213 114.382 18.68 114.467 18.424C114.595 18.1253 114.659 17.6987 114.659 17.144C114.659 15.5653 113.742 14.776 111.907 14.776C111.139 14.776 110.35 14.9467 109.539 15.288C108.771 15.5867 108.131 16.12 107.619 16.888C107.022 17.7413 106.723 18.5307 106.723 19.256C106.723 19.5973 106.787 19.9173 106.915 20.216C107.086 20.5147 107.278 20.8133 107.491 21.112C108.174 21.88 108.92 22.6053 109.731 23.288C110.584 23.928 111.31 24.632 111.907 25.4C112.547 26.168 112.867 27.1067 112.867 28.216C112.867 29.7093 112.376 31.0107 111.395 32.12C110.414 33.1867 109.219 34.0187 107.811 34.616C106.403 35.1707 105.038 35.448 103.715 35.448ZM120.468 35.384C120.34 35.384 120.319 35.32 120.404 35.192C120.489 35.1067 120.553 35.064 120.596 35.064C121.279 35.064 121.769 34.9147 122.068 34.616C122.324 34.2747 122.729 34.104 123.284 34.104C123.497 34.104 123.753 34.168 124.052 34.296C123.967 34.1253 123.924 33.8267 123.924 33.4C123.924 33.1867 123.945 32.9947 123.988 32.824C124.031 32.6107 124.116 32.4187 124.244 32.248C125.609 29.688 127.017 26.7867 128.468 23.544C129.961 20.2587 131.348 16.9947 132.628 13.752C133.14 12.5147 133.609 11.1707 134.036 9.72C134.505 8.22667 134.889 6.904 135.188 5.752C135.529 4.6 135.7 3.85333 135.7 3.512V3.128C135.7 2.232 135.444 1.784 134.932 1.784C134.335 1.784 133.695 1.93333 133.012 2.232C132.927 2.27466 132.905 2.232 132.948 2.104C133.033 1.976 133.14 1.89067 133.268 1.848C133.609 1.76266 134.057 1.656 134.612 1.528C135.167 1.4 135.615 1.272 135.956 1.144C136.297 1.016 136.553 0.952 136.724 0.952C137.321 0.952 137.62 1.336 137.62 2.104C137.62 2.872 137.385 3.96 136.916 5.368C136.489 6.73333 135.977 8.16267 135.38 9.656C134.825 11.1067 134.335 12.344 133.908 13.368L128.66 25.336C129.684 23.8427 130.793 22.3707 131.988 20.92C133.183 19.4267 134.335 18.104 135.444 16.952C136.596 15.7573 137.556 14.904 138.324 14.392C138.879 14.0507 139.391 13.88 139.86 13.88C140.287 13.88 140.628 14.0507 140.884 14.392C141.183 14.6907 141.332 15.2027 141.332 15.928C141.332 17.2933 141.033 18.8293 140.436 20.536C139.839 22.2427 139.071 23.928 138.132 25.592C137.193 27.256 136.191 28.7707 135.124 30.136C134.1 31.4587 133.097 32.44 132.116 33.08C130.793 33.976 129.535 34.5947 128.34 34.936C127.145 35.2347 125.759 35.384 124.18 35.384H120.468ZM126.356 34.68C127.337 34.68 128.319 34.5307 129.3 34.232C130.281 33.8907 131.113 33.4853 131.796 33.016C132.991 32.12 134.121 30.8827 135.188 29.304C136.255 27.7253 137.172 26.0613 137.94 24.312C138.751 22.52 139.284 20.92 139.54 19.512C139.583 19.2987 139.625 19 139.668 18.616C139.711 18.1893 139.732 17.7413 139.732 17.272C139.732 16.7173 139.668 16.2267 139.54 15.8C139.412 15.3733 139.135 15.16 138.708 15.16C138.111 15.16 137.364 15.5653 136.468 16.376C135.615 17.144 134.676 18.168 133.652 19.448C132.628 20.728 131.583 22.1147 130.516 23.608C129.492 25.1013 128.532 26.5733 127.636 28.024C126.74 29.4747 125.972 30.7547 125.332 31.864C124.735 32.9733 124.329 33.784 124.116 34.296C124.756 34.552 125.503 34.68 126.356 34.68ZM133.512 53.176C131.805 53.176 130.547 52.8773 129.736 52.28C128.925 51.6827 128.413 51 128.2 50.232C127.944 49.5067 127.816 48.9093 127.816 48.44C127.816 47.3733 127.987 46.4133 128.328 45.56C128.627 44.7493 128.968 43.9813 129.352 43.256C129.48 42.9573 129.608 42.8507 129.736 42.936C129.864 43.064 129.864 43.192 129.736 43.32C129.395 43.6613 129.117 44.1733 128.904 44.856C128.691 45.5813 128.584 46.1787 128.584 46.648C128.584 50.4453 130.419 52.344 134.088 52.344C135.923 52.344 137.565 51.832 139.016 50.808C140.467 49.8267 141.768 48.5467 142.92 46.968C144.072 45.3893 145.053 43.7467 145.864 42.04C146.717 40.376 147.443 38.8827 148.04 37.56C148.467 36.664 149.021 35.3413 149.704 33.592C150.429 31.8 151.176 29.8587 151.944 27.768C152.755 25.6347 153.48 23.6507 154.12 21.816C154.163 21.7307 154.163 21.624 154.12 21.496C154.12 21.368 154.077 21.3893 153.992 21.56C153.011 23.352 151.944 25.1227 150.792 26.872C149.683 28.6213 148.531 30.1787 147.336 31.544C146.184 32.8667 145.053 33.8267 143.944 34.424C143.645 34.5947 143.24 34.7867 142.728 35C142.259 35.1707 141.789 35.256 141.32 35.256C140.509 35.256 140.104 34.7653 140.104 33.784C140.104 33.016 140.296 32.12 140.68 31.096C141.064 30.0293 141.448 29.0693 141.832 28.216C142.259 27.32 142.536 26.744 142.664 26.488C143.645 24.0987 144.392 22.2427 144.904 20.92C145.416 19.5547 145.779 18.3813 145.992 17.4C146.035 17.144 146.077 16.888 146.12 16.632C146.163 16.3333 146.184 16.056 146.184 15.8C146.184 15.0747 145.992 14.648 145.608 14.52C145.437 14.4773 145.245 14.456 145.032 14.456C144.819 14.4133 144.563 14.392 144.264 14.392C143.923 14.392 143.56 14.4133 143.176 14.456C142.835 14.456 142.536 14.456 142.28 14.456C142.152 14.456 142.109 14.4133 142.152 14.328C142.237 14.2427 142.365 14.2 142.536 14.2H146.248C146.589 14.2 146.888 14.2 147.144 14.2C147.4 14.1573 147.635 14.1147 147.848 14.072L148.104 14.008H148.168C148.467 14.008 148.488 14.2213 148.232 14.648L147.528 16.568C147.101 17.8053 146.525 19.256 145.8 20.92C145.117 22.584 144.456 24.248 143.816 25.912C143.133 27.5333 142.643 28.8987 142.344 30.008C142.088 31.0747 141.96 32.0987 141.96 33.08C141.96 33.8907 142.195 34.296 142.664 34.296C143.731 34.296 145.011 33.4853 146.504 31.864C148.04 30.2 149.555 28.1947 151.048 25.848C151.944 24.3973 152.691 23.1173 153.288 22.008C153.885 20.856 154.419 19.6827 154.888 18.488C155.4 17.2507 155.891 15.8213 156.36 14.2C156.488 14.1573 156.68 14.1147 156.936 14.072C157.192 14.0293 157.427 14.008 157.64 14.008C158.067 14.008 158.259 14.0933 158.216 14.264L155.72 20.984C154.568 24.0987 153.288 27.384 151.88 30.84C150.472 34.2533 149.021 37.4747 147.528 40.504C146.888 41.784 146.099 43.1493 145.16 44.6C144.264 46.0933 143.219 47.48 142.024 48.76C140.829 50.04 139.528 51.0853 138.12 51.896C136.669 52.7493 135.133 53.176 133.512 53.176ZM168.328 35.064C167.902 35.064 167.688 34.8507 167.688 34.424C167.688 34.0827 167.838 33.5067 168.136 32.696C168.478 31.8427 168.99 30.6267 169.672 29.048C170.568 27.0427 171.486 24.9947 172.424 22.904C173.363 20.7707 174.259 18.6587 175.112 16.568C175.198 16.312 175.432 15.6933 175.816 14.712C176.2 13.7307 176.648 12.5787 177.16 11.256C177.672 9.93333 178.163 8.632 178.632 7.352C179.102 6.02933 179.486 4.87733 179.784 3.896C180.126 2.91467 180.296 2.31733 180.296 2.104C180.296 1.54933 179.955 1.272 179.272 1.272C179.102 1.272 178.76 1.29333 178.248 1.336C177.736 1.336 177.224 1.35733 176.712 1.4C176.243 1.4 175.902 1.44267 175.688 1.528C175.603 1.528 175.518 1.42133 175.432 1.208C175.39 0.994665 175.475 0.866664 175.688 0.823997C175.731 0.823997 176.158 0.845331 176.968 0.887997C177.779 0.887997 178.59 0.887997 179.4 0.887997C179.87 0.887997 180.275 0.887997 180.616 0.887997C181 0.887997 181.299 0.866664 181.512 0.823997C181.598 0.823997 181.726 0.823997 181.896 0.823997C182.067 0.781331 182.238 0.759998 182.408 0.759998C182.622 0.759998 182.814 0.802664 182.984 0.887997C183.155 0.973331 183.176 1.12267 183.048 1.336C181.811 3.81067 180.595 6.28533 179.4 8.76C178.206 11.2347 177.054 13.7947 175.944 16.44C174.92 18.9147 173.896 21.4107 172.872 23.928C171.891 26.4453 171.102 28.6 170.504 30.392C170.419 30.6907 170.312 31.032 170.184 31.416C170.099 31.8 170.056 32.1627 170.056 32.504C170.056 33.4427 170.44 34.04 171.208 34.296C171.55 34.424 171.976 34.5093 172.488 34.552C173.043 34.5947 173.576 34.616 174.088 34.616C174.43 34.616 174.728 34.616 174.984 34.616C175.24 34.616 175.454 34.5947 175.624 34.552C175.667 34.552 175.688 34.5733 175.688 34.616C175.688 34.872 175.56 35 175.304 35C174.75 35 174.067 35 173.256 35C172.446 35 171.635 35 170.824 35C170.014 34.9573 169.374 34.9573 168.904 35C168.776 35.0427 168.584 35.064 168.328 35.064ZM178.913 35.768C178.785 35.768 178.657 35.6613 178.529 35.448C178.444 35.2347 178.38 35.0853 178.337 35C178.294 34.9147 178.252 34.808 178.209 34.68C178.209 34.552 178.209 34.4453 178.209 34.36C178.209 34.1467 178.252 33.9333 178.337 33.72C178.465 33.5067 178.572 33.3147 178.657 33.144C179.084 32.248 179.596 31.096 180.193 29.688C180.833 28.2373 181.452 26.7013 182.049 25.08C182.689 23.4587 183.244 21.9227 183.713 20.472C184.182 18.9787 184.46 17.7413 184.545 16.76C184.545 16.632 184.545 16.504 184.545 16.376C184.588 16.248 184.609 16.12 184.609 15.992C184.609 15.5653 184.524 15.2027 184.353 14.904C184.182 14.6053 183.82 14.456 183.265 14.456H180.641C180.513 14.456 180.47 14.4133 180.513 14.328C180.556 14.2427 180.598 14.2 180.641 14.2C180.982 14.2 181.58 14.2 182.433 14.2C183.329 14.2 184.182 14.1787 184.993 14.136C185.804 14.0933 186.316 14.0293 186.529 13.944C186.572 13.944 186.593 13.944 186.593 13.944C186.636 13.9013 186.678 13.88 186.721 13.88C187.062 13.88 187.148 14.0507 186.977 14.392L186.209 16.248L184.033 22.072C184.545 21.1333 185.185 20.024 185.953 18.744C186.721 17.4213 187.617 16.2693 188.641 15.288C189.708 14.3067 190.86 13.816 192.097 13.816C192.822 13.816 193.356 13.9867 193.697 14.328C194.081 14.6267 194.273 15.1813 194.273 15.992C194.273 16.2907 194.23 16.6533 194.145 17.08C194.06 17.5067 193.953 17.976 193.825 18.488C193.782 18.616 193.74 18.7653 193.697 18.936C193.697 19.064 193.654 19.192 193.569 19.32C193.526 19.4907 193.441 19.576 193.313 19.576C193.185 19.576 193.142 19.5333 193.185 19.448C193.398 18.9787 193.548 18.5947 193.633 18.296C193.718 17.9973 193.761 17.5493 193.761 16.952C193.761 15.5867 192.993 14.904 191.457 14.904C190.518 14.904 189.58 15.3307 188.641 16.184C187.745 17.0373 186.892 18.0827 186.081 19.32C185.27 20.5573 184.566 21.7947 183.969 23.032C183.372 24.2693 182.924 25.2507 182.625 25.976C182.028 27.5547 181.43 29.0907 180.833 30.584C180.278 32.0773 179.766 33.6347 179.297 35.256C179.169 35.5973 179.041 35.768 178.913 35.768ZM194.004 35.832C192.937 35.832 192.148 35.4907 191.636 34.808C191.167 34.1253 190.932 33.208 190.932 32.056C190.932 31.032 191.188 29.6667 191.7 27.96C192.212 26.2533 192.873 24.504 193.684 22.712L191.572 23.288C191.487 23.288 191.423 23.2453 191.38 23.16C191.38 23.0747 191.401 23.032 191.444 23.032C191.657 22.9893 191.977 22.904 192.404 22.776C192.831 22.648 193.321 22.4987 193.876 22.328C194.644 20.792 195.497 19.3627 196.436 18.04C197.375 16.7173 198.377 15.6507 199.444 14.84C200.511 14.0293 201.599 13.624 202.708 13.624C204.713 13.624 205.716 14.1787 205.716 15.288C205.716 15.5867 205.652 16.0773 205.524 16.76C205.396 17.4 205.247 17.976 205.076 18.488C205.033 18.616 204.991 18.7653 204.948 18.936C204.948 19.064 204.905 19.192 204.82 19.32C204.777 19.4907 204.692 19.576 204.564 19.576C204.436 19.576 204.393 19.5333 204.436 19.448C204.607 19.0213 204.735 18.68 204.82 18.424C204.948 18.1253 205.012 17.6987 205.012 17.144C205.012 15.5653 204.18 14.776 202.516 14.776C200.852 14.776 199.359 15.5227 198.036 17.016C196.713 18.4667 195.625 20.152 194.772 22.072C195.668 21.8587 196.649 21.6667 197.716 21.496C198.825 21.3253 199.913 21.24 200.98 21.24C201.705 21.24 202.452 21.304 203.22 21.432C203.988 21.56 204.628 21.7947 205.14 22.136C205.695 22.4347 205.972 22.8827 205.972 23.48C205.972 23.992 205.865 24.312 205.652 24.44C205.439 24.568 205.375 24.5467 205.46 24.376C205.673 23.9493 205.631 23.608 205.332 23.352C205.076 23.0533 204.735 22.84 204.308 22.712C203.881 22.5413 203.497 22.4347 203.156 22.392C202.601 22.3067 202.004 22.2427 201.364 22.2C200.767 22.1573 200.148 22.136 199.508 22.136C198.697 22.136 197.865 22.1787 197.012 22.264C196.201 22.3067 195.391 22.4133 194.58 22.584C193.94 24.12 193.449 25.656 193.108 27.192C192.767 28.6853 192.596 29.9227 192.596 30.904C192.596 32.0987 192.809 33.0587 193.236 33.784C193.663 34.5093 194.345 34.872 195.284 34.872C196.991 34.872 198.655 34.2107 200.276 32.888C201.897 31.5227 203.305 29.9227 204.5 28.088C204.671 27.7467 204.841 27.576 205.012 27.576C205.055 27.576 205.076 27.64 205.076 27.768C205.076 27.9813 205.033 28.152 204.948 28.28C203.412 30.3707 201.663 32.1627 199.7 33.656C197.78 35.1067 195.881 35.832 194.004 35.832ZM207.248 35.896C207.077 35.896 206.885 35.7467 206.672 35.448C206.458 35.1493 206.309 34.9573 206.224 34.872C206.181 34.7867 206.138 34.68 206.096 34.552C206.096 34.424 206.096 34.3173 206.096 34.232C206.096 34.0187 206.138 33.8053 206.224 33.592C206.352 33.3787 206.458 33.1867 206.544 33.016C207.013 32.2053 207.546 31.0747 208.144 29.624C208.784 28.1307 209.424 26.552 210.064 24.888C210.704 23.1813 211.28 21.5813 211.792 20.088C212.304 18.552 212.645 17.336 212.816 16.44C212.858 16.2693 212.88 16.12 212.88 15.992C212.922 15.8213 212.944 15.672 212.944 15.544C212.944 15.2027 212.837 14.9467 212.624 14.776C212.453 14.5627 212.09 14.456 211.536 14.456H208.912C208.784 14.456 208.741 14.4133 208.784 14.328C208.826 14.2427 208.89 14.2 208.976 14.2H210.96C211.728 14.2 212.517 14.2 213.328 14.2C214.181 14.1573 214.736 14.072 214.992 13.944C215.162 13.8587 215.312 13.8373 215.44 13.88C215.568 13.9227 215.589 14.0293 215.504 14.2C215.333 14.4987 215.013 15.224 214.544 16.376C214.117 17.4853 213.605 18.7867 213.008 20.28C212.41 21.7733 211.813 23.288 211.216 24.824C210.618 26.36 210.064 27.7253 209.552 28.92C209.509 28.9627 209.488 29.0267 209.488 29.112C209.786 28.472 210.106 27.8747 210.448 27.32C211.002 26.3813 211.728 25.208 212.624 23.8C213.52 22.392 214.522 20.984 215.632 19.576C216.784 18.168 217.957 16.9307 219.152 15.864C220.389 14.7973 221.605 14.136 222.8 13.88C222.928 13.8373 223.056 13.816 223.184 13.816C223.312 13.816 223.44 13.816 223.568 13.816C223.909 13.816 224.208 13.88 224.464 14.008C224.72 14.136 224.848 14.4347 224.848 14.904C224.805 15.5013 224.549 16.4613 224.08 17.784C223.61 19.064 222.992 20.664 222.224 22.584C221.242 24.9307 220.496 26.7867 219.984 28.152C219.472 29.4747 219.109 30.6267 218.896 31.608C218.768 32.12 218.704 32.6533 218.704 33.208C218.704 33.9333 218.896 34.2747 219.28 34.232C219.749 34.1467 220.261 33.9333 220.816 33.592C221.413 33.2507 221.904 32.952 222.288 32.696H222.352C222.394 32.696 222.416 32.7173 222.416 32.76C222.416 32.9307 222.288 33.0587 222.032 33.144C221.861 33.2293 221.392 33.464 220.624 33.848C219.898 34.232 219.28 34.5307 218.768 34.744L217.744 35.32C217.616 35.3627 217.488 35.384 217.36 35.384C217.189 35.384 217.061 35.3627 216.976 35.32C216.933 35.2773 216.89 35.2347 216.848 35.192C216.592 34.9787 216.656 34.296 217.04 33.144C217.466 31.9493 218.064 30.4773 218.832 28.728C219.6 26.936 220.368 25.0587 221.136 23.096C221.221 22.84 221.413 22.2853 221.712 21.432C222.01 20.5787 222.288 19.64 222.544 18.616C222.8 17.592 222.928 16.7173 222.928 15.992C222.928 15.1387 222.693 14.712 222.224 14.712C221.456 14.712 220.602 15.0747 219.664 15.8C218.768 16.5253 217.808 17.4853 216.784 18.68C215.802 19.8747 214.821 21.176 213.84 22.584C212.901 23.992 212.048 25.3787 211.28 26.744C210.512 28.0667 209.786 29.4747 209.104 30.968C208.421 32.4613 207.909 33.9547 207.568 35.448L207.376 35.832C207.333 35.8747 207.29 35.896 207.248 35.896ZM227.515 35.832C226.449 35.832 225.659 35.4907 225.147 34.808C224.678 34.1253 224.443 33.208 224.443 32.056C224.443 31.032 224.699 29.6667 225.211 27.96C225.723 26.2533 226.385 24.504 227.195 22.712L225.083 23.288C224.998 23.288 224.934 23.2453 224.891 23.16C224.891 23.0747 224.913 23.032 224.955 23.032C225.169 22.9893 225.489 22.904 225.915 22.776C226.342 22.648 226.833 22.4987 227.387 22.328C228.155 20.792 229.009 19.3627 229.947 18.04C230.886 16.7173 231.889 15.6507 232.955 14.84C234.022 14.0293 235.11 13.624 236.219 13.624C238.225 13.624 239.227 14.1787 239.227 15.288C239.227 15.5867 239.163 16.0773 239.035 16.76C238.907 17.4 238.758 17.976 238.587 18.488C238.545 18.616 238.502 18.7653 238.459 18.936C238.459 19.064 238.417 19.192 238.331 19.32C238.289 19.4907 238.203 19.576 238.075 19.576C237.947 19.576 237.905 19.5333 237.947 19.448C238.118 19.0213 238.246 18.68 238.331 18.424C238.459 18.1253 238.523 17.6987 238.523 17.144C238.523 15.5653 237.691 14.776 236.027 14.776C234.363 14.776 232.87 15.5227 231.547 17.016C230.225 18.4667 229.137 20.152 228.283 22.072C229.179 21.8587 230.161 21.6667 231.227 21.496C232.337 21.3253 233.425 21.24 234.491 21.24C235.217 21.24 235.963 21.304 236.731 21.432C237.499 21.56 238.139 21.7947 238.651 22.136C239.206 22.4347 239.483 22.8827 239.483 23.48C239.483 23.992 239.377 24.312 239.163 24.44C238.95 24.568 238.886 24.5467 238.971 24.376C239.185 23.9493 239.142 23.608 238.843 23.352C238.587 23.0533 238.246 22.84 237.819 22.712C237.393 22.5413 237.009 22.4347 236.667 22.392C236.113 22.3067 235.515 22.2427 234.875 22.2C234.278 22.1573 233.659 22.136 233.019 22.136C232.209 22.136 231.377 22.1787 230.523 22.264C229.713 22.3067 228.902 22.4133 228.091 22.584C227.451 24.12 226.961 25.656 226.619 27.192C226.278 28.6853 226.107 29.9227 226.107 30.904C226.107 32.0987 226.321 33.0587 226.747 33.784C227.174 34.5093 227.857 34.872 228.795 34.872C230.502 34.872 232.166 34.2107 233.787 32.888C235.409 31.5227 236.817 29.9227 238.011 28.088C238.182 27.7467 238.353 27.576 238.523 27.576C238.566 27.576 238.587 27.64 238.587 27.768C238.587 27.9813 238.545 28.152 238.459 28.28C236.923 30.3707 235.174 32.1627 233.211 33.656C231.291 35.1067 229.393 35.832 227.515 35.832Z" fill="black"/>
</g>
<defs>
<filter id="filter0_d_413_8" x="0.83197" y="0.76001" width="242.652" height="60.416" filterUnits="userSpaceOnUse" color-interpolation-filters="sRGB">
<feFlood flood-opacity="0" result="BackgroundImageFix"/>
<feColorMatrix in="SourceAlpha" type="matrix" values="0 0 0 0 0 0 0 0 0 0 0 0 0 0 0 0 0 0 127 0" result="hardAlpha"/>
<feOffset dy="4"/>
<feGaussianBlur stdDeviation="2"/>
<feComposite in2="hardAlpha" operator="out"/>
<feColorMatrix type="matrix" values="0 0 0 0 0 0 0 0 0 0 0 0 0 0 0 0 0 0 0.25 0"/>
<feBlend mode="normal" in2="BackgroundImageFix" result="effect1_dropShadow_413_8"/>
<feBlend mode="normal" in="SourceGraphic" in2="effect1_dropShadow_413_8" result="shape"/>
</filter>
</defs>
</svg>
