<svg width="32" height="32" viewBox="0 0 32 32" fill="none" xmlns="http://www.w3.org/2000/svg">
<path fill-rule="evenodd" clip-rule="evenodd" d="M26.6667 10.32L28.88 12.3333C29.4316 12.8197 29.4853 13.6608 29 14.2133C28.5137 14.7649 27.6726 14.8186 27.12 14.3333L26.6667 13.9333V25.3333C26.6667 27.5425 24.8758 29.3333 22.6667 29.3333H18.6667C17.9303 29.3333 17.3334 28.7364 17.3334 28V21.3333C17.339 20.986 17.1988 20.6523 16.9467 20.4133C16.6995 20.154 16.3583 20.005 16 20C15.2637 20 14.6667 20.597 14.6667 21.3333V28C14.6667 28.7364 14.0697 29.3333 13.3334 29.3333H9.33337C7.12423 29.3333 5.33337 27.5425 5.33337 25.3333V13.9333L4.88004 14.3333C4.32415 14.7811 3.51426 14.7116 3.04272 14.1758C2.57117 13.6399 2.60526 12.8278 3.12004 12.3333L5.33337 10.32L6.4667 9.33333L15.12 1.66667C15.6234 1.22447 16.3767 1.22447 16.88 1.66667L25.5334 9.33333L26.6667 10.32ZM22.6667 26.6667C23.4031 26.6667 24 26.0697 24 25.3333V11.56L16 4.45333L8.00004 11.56V25.3333C8.00004 26.0697 8.59699 26.6667 9.33337 26.6667H12V21.3333C12 19.1242 13.7909 17.3333 16 17.3333C18.2092 17.3333 20 19.1242 20 21.3333V26.6667H22.6667Z" fill="#231F20"/>
</svg>
